<svg id="Layer_1" data-name="Layer 1" xmlns="http://www.w3.org/2000/svg" viewBox="0 0 336.03 264.57"><defs><style>.cls-1{fill:#fff;}</style></defs><title>camera</title><path d="M708.66,639.1c-2.3,5.59-3.8,11.71-7,16.69-7.49,11.46-18.68,16.54-32.38,16.48-23.62-.11-47.24,0-70.86,0q-92.82,0-185.66,0c-15.12,0-26.81-6.11-34.89-18.87-3.85-6.07-5.19-12.87-5.18-20q.06-48.23,0-96.44c0-20.34-.08-40.68,0-61a38,38,0,0,1,29.69-37.2,48.73,48.73,0,0,1,10.09-.94c15.53-.1,31.06,0,46.58,0h3.24c1.28-4.57,1.88-9.1,3.77-13,5.5-11.46,15.14-16.87,27.7-16.9,31.27-.09,62.54-.18,93.81,0,15.07.11,25.65,8.44,29.41,22.34a74.59,74.59,0,0,1,1.21,7.56h3.42q23.79,0,47.57,0c20.3,0,34.82,11.95,39,31.89a2.92,2.92,0,0,0,.5.81Zm-168,16.25q63.65,0,127.28,0a32.05,32.05,0,0,0,8.43-.89c10.21-2.87,15.64-10.72,15.67-22.61q.18-77.42,0-154.83a25.6,25.6,0,0,0-2.19-10.45c-3.86-8.25-10.91-11.83-19.88-11.83q-29.21,0-58.4,0c-7.24,0-10.49-3.31-10.51-10.63v-4.93c0-10.39-4.33-14.72-14.75-14.72H495.42c-1.21,0-2.41,0-3.61.08a11.52,11.52,0,0,0-11,10.67c-.28,3-.19,6.12-.23,9.18-.1,7.06-3.4,10.34-10.5,10.35-19.58,0-39.15-.06-58.72,0-12.83,0-21.71,8.61-21.73,21.24q-.14,79.06.05,158.12a22.86,22.86,0,0,0,2.1,9.46c4.06,8.53,11.43,11.81,20.59,11.81Q476.55,655.33,540.67,655.35Z" transform="translate(-372.63 -407.7)"/><path class="cls-1" d="M540.67,655.35q-64.12,0-128.26,0c-9.16,0-16.53-3.28-20.59-11.81a22.86,22.86,0,0,1-2.1-9.46Q389.54,555,389.67,476c0-12.63,8.9-21.19,21.73-21.24,19.57-.08,39.14,0,58.72,0,7.1,0,10.4-3.29,10.5-10.35,0-3.06-.05-6.14.23-9.18a11.52,11.52,0,0,1,11-10.67c1.2-.09,2.4-.08,3.61-.08h90.86c10.42,0,14.74,4.33,14.75,14.72v4.93c0,7.32,3.27,10.62,10.51,10.63q29.21,0,58.4,0c9,0,16,3.58,19.88,11.83A25.6,25.6,0,0,1,692,477q.19,77.41,0,154.83c0,11.89-5.46,19.74-15.67,22.61a32.05,32.05,0,0,1-8.43.89Q604.32,655.4,540.67,655.35Zm78.58-100c-.35-43.37-33.93-78.44-78.16-78.77a77.92,77.92,0,0,0-78.93,78.2c-.14,43.4,34.22,78.52,78.38,78.83C583.59,633.87,618.76,598.84,619.25,555.31Zm35.1-48a15.55,15.55,0,1,0-15.61-15.65A15.52,15.52,0,0,0,654.35,507.32Z" transform="translate(-372.63 -407.7)"/><path d="M619.25,555.31c-.49,43.53-35.66,78.56-78.71,78.26-44.16-.31-78.52-35.43-78.38-78.83a77.92,77.92,0,0,1,78.93-78.2C585.32,476.87,618.9,511.94,619.25,555.31Zm-17.34.42a61.25,61.25,0,1,0-61.28,61A61.07,61.07,0,0,0,601.91,555.73Z" transform="translate(-372.63 -407.7)"/><path d="M654.35,507.32A15.55,15.55,0,1,1,670,491.71,15.6,15.6,0,0,1,654.35,507.32Z" transform="translate(-372.63 -407.7)"/><path class="cls-1" d="M601.91,555.73A61.25,61.25,0,1,1,540.71,494,61.15,61.15,0,0,1,601.91,555.73Z" transform="translate(-372.63 -407.7)"/></svg>